<svg id="visual" viewBox="0 0 1920 250" width="1920" height="250" xmlns="http://www.w3.org/2000/svg" xmlns:xlink="http://www.w3.org/1999/xlink" version="1.1"><path d="M0 89L62 95L124 39L186 199L248 123L310 219L372 13L434 151L495 104L557 203L619 242L681 30L743 246L805 185L867 76L929 179L991 235L1053 212L1115 143L1177 177L1239 65L1301 164L1363 103L1425 136L1486 168L1548 236L1610 37L1672 221L1734 234L1796 53L1858 241L1920 33" fill="none" stroke-linecap="square" stroke-linejoin="bevel" stroke="#ffff00" stroke-width="99"></path></svg>